HIERARCHY
ROOT Pelvis
{
	OFFSET 0.000000 0.000000 0.000000
	CHANNELS 6 Xposition Yposition Zposition Xrotation Yrotation Zrotation
	JOINT LeftUpLeg_virtual
	{
		OFFSET 0.000000 0.000000 0.000000
		CHANNELS 3 Xrotation Yrotation Zrotation
		JOINT LeftUpLeg
		{
			OFFSET 18.735201 -5.666702 -4.541200
			CHANNELS 3 Xrotation Yrotation Zrotation
			JOINT LeftLeg
			{
				OFFSET -0.021200 -31.938179 0.493100
				CHANNELS 3 Xrotation Yrotation Zrotation
				JOINT LeftFoot
				{
					OFFSET 0.021200 -31.938179 -4.336299
					CHANNELS 3 Xrotation Yrotation Zrotation
					JOINT LeftToeBase
					{
						OFFSET 0.943001 -26.722000 15.023500
						CHANNELS 3 Xrotation Yrotation Zrotation
						End Site
						{
							OFFSET 0 0 0
						}
					}
				}
			}
		}
	}
	JOINT RightUpLeg_virtual
	{
		OFFSET 0.000000 0.000000 0.000000
		CHANNELS 3 Xrotation Yrotation Zrotation
		JOINT RightUpLeg
		{
			OFFSET -18.735201 -5.666702 -4.541200
			CHANNELS 3 Xrotation Yrotation Zrotation
			JOINT RightLeg
			{
				OFFSET 0.018946 -31.938133 0.493100
				CHANNELS 3 Xrotation Yrotation Zrotation
				JOINT RightFoot
				{
					OFFSET -0.018946 -31.938126 -4.336299
					CHANNELS 3 Xrotation Yrotation Zrotation
					JOINT RightToeBase
					{
						OFFSET -0.943001 -26.722004 15.023500
						CHANNELS 3 Xrotation Yrotation Zrotation
						End Site
						{
							OFFSET 0 0 0
						}
					}
				}
			}
		}
	}
	JOINT Hips_virtual
	{
		OFFSET 0.000000 0.000000 0.000000
		CHANNELS 3 Xrotation Yrotation Zrotation
		JOINT Hips
		{
			OFFSET -0.000000 -0.000000 -0.000000
			CHANNELS 3 Xrotation Yrotation Zrotation
			JOINT Spine
			{
				OFFSET 0.000000 10.199997 -0.299500
				CHANNELS 3 Xrotation Yrotation Zrotation
				JOINT Spine1
				{
					OFFSET 0.000000 11.900002 -1.516600
					CHANNELS 3 Xrotation Yrotation Zrotation
					JOINT Spine2
					{
						OFFSET 0.000000 13.600006 -2.842500
						CHANNELS 3 Xrotation Yrotation Zrotation
						JOINT Neck_virtual
						{
							OFFSET 0.000000 0.000000 0.000000
							CHANNELS 3 Xrotation Yrotation Zrotation
							JOINT Neck
							{
								OFFSET 0.000000 9.624100 -2.890100
								CHANNELS 3 Xrotation Yrotation Zrotation
								JOINT Head
								{
									OFFSET 0.000000 14.068802 -1.351900
									CHANNELS 3 Xrotation Yrotation Zrotation
									End Site
									{
										OFFSET 0 0 0
									}
								}
							}
						}
						JOINT LeftShoulder_virtual
						{
							OFFSET 0.000000 0.000000 0.000000
							CHANNELS 3 Xrotation Yrotation Zrotation
							JOINT LeftShoulder
							{
								OFFSET 15.263000 10.923401 -0.547700
								CHANNELS 3 Xrotation Yrotation Zrotation
								JOINT LeftArm
								{
									OFFSET 25.438599 -2.830597 -13.032500
									CHANNELS 3 Xrotation Yrotation Zrotation
									JOINT LeftForeArm
									{
										OFFSET 29.960503 0.000000 0.000000
										CHANNELS 3 Xrotation Yrotation Zrotation
										JOINT LeftHand
										{
											OFFSET 27.849251 0.000000 0.000000
											CHANNELS 3 Xrotation Yrotation Zrotation
											End Site
											{
												OFFSET 0 0 0
											}
										}
									}
								}
							}
						}
						JOINT RightShoulder_virtual
						{
							OFFSET 0.000000 0.000000 0.000000
							CHANNELS 3 Xrotation Yrotation Zrotation
							JOINT RightShoulder
							{
								OFFSET -15.263000 10.923401 -0.547700
								CHANNELS 3 Xrotation Yrotation Zrotation
								JOINT RightArm
								{
									OFFSET -25.438599 -2.830597 -13.032500
									CHANNELS 3 Xrotation Yrotation Zrotation
									JOINT RightForeArm
									{
										OFFSET -29.960503 0.000000 0.000000
										CHANNELS 3 Xrotation Yrotation Zrotation
										JOINT RightHand
										{
											OFFSET -27.849251 0.000000 0.000000
											CHANNELS 3 Xrotation Yrotation Zrotation
											End Site
											{
												OFFSET 0 0 0
											}
										}
									}
								}
							}
						}
					}
				}
			}
		}
	}
}
MOTION
Frames: 11
Frame Time: 0.03333333
-0.462387 91.732635 1.386502 0.000000 0.000000 0.000000 8.339924 -14.052198 -0.499612 -30.419108 8.044952 14.682723 37.347153 4.097521 -2.270242 -11.036020 5.177682 -5.962630 0.000000 0.000000 0.000000 7.788469 -7.625840 2.016891 -19.931535 -7.718804 -13.457317 32.332422 -1.515306 -1.085487 -16.335349 -4.953169 8.428942 0.000000 0.000000 0.000000 1.795768 -3.508377 -0.543050 5.287270 -9.109634 -1.815480 8.324232 4.271996 0.667453 2.265908 2.887128 0.798685 0.000000 0.000000 0.000000 -3.402818 2.736308 -0.761860 -3.740435 0.901596 -0.414488 0.000000 0.000000 0.000000 -3.441491 3.719020 0.161497 -3.181126 0.902342 -5.235508 -2.734654 5.888092 -57.914724 -0.059207 -27.554733 -6.575573 0.000000 0.000000 0.000000 -3.060637 1.864182 0.688489 -5.154448 7.901498 11.416373 3.593361 -1.645712 54.848212 2.556358 29.546579 5.594066 0.000000 0.000000 0.000000 
-0.378569 91.724846 1.442999 0.000000 0.000000 0.000000 8.356545 -14.193835 -0.441193 -30.407500 7.995438 14.727776 37.357286 4.128986 -2.286685 -11.017696 5.218631 -5.973735 0.000000 0.000000 0.000000 7.823171 -7.544163 2.030700 -19.870543 -7.705923 -13.426496 32.370585 -1.518037 -1.047814 -16.298592 -4.972245 8.483870 0.000000 0.000000 0.000000 1.817558 -3.583590 -0.525603 5.273456 -9.146981 -1.798394 8.296442 4.218744 0.630379 2.235472 2.888917 0.792386 0.000000 0.000000 0.000000 -3.428956 2.701895 -0.783893 -3.768408 0.868584 -0.428982 0.000000 0.000000 0.000000 -3.517571 3.740617 0.181124 -3.208336 0.944385 -5.157609 -2.508593 5.940952 -58.035837 0.010061 -27.548969 -6.574880 0.000000 0.000000 0.000000 -3.142592 1.892527 0.644974 -5.190951 7.795778 11.405459 3.710655 -1.694834 55.041237 2.593743 29.490206 5.641963 0.000000 0.000000 0.000000 
-0.212560 91.713127 1.543955 0.000000 0.000000 0.000000 8.386803 -14.441177 -0.336582 -30.389206 7.908365 14.810495 37.385949 4.186691 -2.313932 -10.977128 5.292134 -5.989357 0.000000 0.000000 0.000000 7.892529 -7.399410 2.051484 -19.751367 -7.683745 -13.375455 32.436186 -1.519318 -0.971806 -16.234002 -5.007321 8.598376 0.000000 0.000000 0.000000 1.864965 -3.735233 -0.483310 5.221747 -9.193958 -1.763981 8.248764 4.124437 0.561420 2.183586 2.889369 0.778691 0.000000 0.000000 0.000000 -3.477404 2.635751 -0.823245 -3.821868 0.803854 -0.455354 0.000000 0.000000 0.000000 -3.654703 3.778882 0.215224 -3.257860 1.027647 -5.017916 -2.065439 6.060335 -58.255626 0.132093 -27.547345 -6.575613 0.000000 0.000000 0.000000 -3.286983 1.941638 0.562119 -5.255396 7.584556 11.372297 3.920003 -1.766963 55.394870 2.665281 29.408199 5.729372 0.000000 0.000000 0.000000 
0.030658 91.703300 1.669739 0.000000 0.000000 0.000000 8.425567 -14.735150 -0.207601 -30.371925 7.804014 14.916845 37.444426 4.261807 -2.342426 -10.910157 5.384100 -5.998401 0.000000 0.000000 0.000000 7.994287 -7.225364 2.067375 -19.581840 -7.658550 -13.322782 32.512298 -1.512033 -0.858072 -16.155764 -5.052118 8.777441 0.000000 0.000000 0.000000 1.944840 -3.957642 -0.405751 5.100949 -9.208021 -1.715567 8.195699 4.008894 0.469843 2.123750 2.883545 0.756818 0.000000 0.000000 0.000000 -3.541754 2.542509 -0.871247 -3.896564 0.710180 -0.488574 0.000000 0.000000 0.000000 -3.829066 3.825376 0.255521 -3.322049 1.148585 -4.845272 -1.426251 6.266936 -58.537795 0.279871 -27.564191 -6.579730 0.000000 0.000000 0.000000 -3.461379 1.998882 0.447614 -5.333126 7.269987 11.302530 4.184332 -1.818952 55.856160 2.765166 29.351590 5.842340 0.000000 0.000000 0.000000 
0.341045 91.700119 1.800407 0.000000 0.000000 0.000000 8.467221 -15.013452 -0.080760 -30.362732 7.705091 15.028038 37.539160 4.344516 -2.361397 -10.817205 5.478958 -5.988484 0.000000 0.000000 0.000000 8.121541 -7.063182 2.064791 -19.376772 -7.637536 -13.290078 32.582068 -1.488245 -0.710983 -16.078192 -5.097489 9.020432 0.000000 0.000000 0.000000 2.064816 -4.229309 -0.285849 4.895762 -9.150376 -1.663855 8.155466 3.892400 0.366995 2.067914 2.866586 0.727979 0.000000 0.000000 0.000000 -3.614940 2.427302 -0.916849 -3.987505 0.591924 -0.521885 0.000000 0.000000 0.000000 -4.016573 3.870120 0.293626 -3.393442 1.298898 -4.675578 -0.628282 6.577390 -58.844293 0.424352 -27.610787 -6.586405 0.000000 0.000000 0.000000 -3.630549 2.050219 0.311578 -5.407359 6.858450 11.189347 4.471099 -1.805214 56.368124 2.885755 29.377518 5.964981 0.000000 0.000000 0.000000 
0.703833 91.704704 1.923077 0.000000 0.000000 0.000000 8.507585 -15.229444 0.018801 -30.364514 7.630581 15.123678 37.666424 4.426722 -2.361598 -10.706234 5.563907 -5.949036 0.000000 0.000000 0.000000 8.262275 -6.950101 2.032538 -19.156801 -7.626527 -13.295621 32.632988 -1.441532 -0.540019 -16.011975 -5.132772 9.316933 0.000000 0.000000 0.000000 2.228853 -4.511399 -0.125035 4.621249 -9.000639 -1.626573 8.145311 3.789044 0.263902 2.022348 2.835112 0.695994 0.000000 0.000000 0.000000 -3.691070 2.293871 -0.948948 -4.089722 0.454807 -0.548158 0.000000 0.000000 0.000000 -4.198883 3.903248 0.323523 -3.466754 1.465193 -4.545131 0.273058 6.992734 -59.144254 0.541667 -27.689930 -6.591033 0.000000 0.000000 0.000000 -3.765846 2.083152 0.165263 -5.463063 6.361700 11.039169 4.760131 -1.692598 56.882164 3.017776 29.537915 6.081918 0.000000 0.000000 0.000000 
1.102144 91.713371 2.036013 0.000000 0.000000 0.000000 8.545461 -15.363353 0.072613 -30.373933 7.591490 15.185367 37.812706 4.504061 -2.337466 -10.591283 5.631961 -5.873622 0.000000 0.000000 0.000000 8.401806 -6.908756 1.965443 -18.943641 -7.628196 -13.348720 32.658010 -1.368729 -0.359018 -15.963096 -5.147920 9.646718 0.000000 0.000000 0.000000 2.431906 -4.758041 0.065255 4.321423 -8.759363 -1.622903 8.176350 3.703398 0.169311 1.987372 2.787505 0.666332 0.000000 0.000000 0.000000 -3.766510 2.143008 -0.959136 -4.198474 0.305148 -0.561709 0.000000 0.000000 0.000000 -4.364680 3.916049 0.342623 -3.539044 1.630976 -4.484293 1.208279 7.491418 -59.417086 0.617076 -27.795236 -6.586491 0.000000 0.000000 0.000000 -3.850536 2.088173 0.019532 -5.489654 5.796027 10.868780 5.039549 -1.470042 57.361957 3.150427 29.873950 6.178836 0.000000 0.000000 0.000000 
1.520160 91.718437 2.147516 0.000000 0.000000 0.000000 8.582854 -15.423035 0.071668 -30.381696 7.589595 15.199555 37.960702 4.576902 -2.288308 -10.487144 5.683328 -5.761010 0.000000 0.000000 0.000000 8.527288 -6.942434 1.866428 -18.753802 -7.641832 -13.446777 32.654492 -1.270334 -0.183668 -15.933552 -5.135352 9.983723 0.000000 0.000000 0.000000 2.656882 -4.934232 0.266268 4.053479 -8.439630 -1.665629 8.250253 3.631329 0.088804 1.960293 2.723135 0.644189 0.000000 0.000000 0.000000 -3.839864 1.972109 -0.944134 -4.309027 0.148770 -0.559911 0.000000 0.000000 0.000000 -4.507430 3.901659 0.351279 -3.608594 1.779779 -4.512471 2.104420 8.029958 -59.651355 0.646052 -27.914481 -6.565748 0.000000 0.000000 0.000000 -3.880169 2.058869 -0.116808 -5.481997 5.179686 10.696363 5.296233 -1.149320 57.780457 3.272191 30.414108 6.242221 0.000000 0.000000 0.000000 
1.945027 91.710617 2.270623 0.000000 0.000000 0.000000 8.623700 -15.435551 0.016307 -30.375620 7.619132 15.159262 38.097433 4.650281 -2.218219 -10.402986 5.725055 -5.614705 0.000000 0.000000 0.000000 8.631690 -7.039289 1.746361 -18.594563 -7.665053 -13.576336 32.623671 -1.149419 -0.028465 -15.922148 -5.090511 10.301967 0.000000 0.000000 0.000000 2.876985 -5.031831 0.457350 3.867012 -8.056441 -1.754805 8.359765 3.563681 0.025213 1.939067 2.641362 0.632668 0.000000 0.000000 0.000000 -3.910920 1.776131 -0.907045 -4.416393 -0.010132 -0.543893 0.000000 0.000000 0.000000 -4.622361 3.855597 0.351447 -3.673701 1.898081 -4.635207 2.899623 8.551953 -59.842422 0.633458 -28.034387 -6.524119 0.000000 0.000000 0.000000 -3.859073 1.991481 -0.238480 -5.440137 4.529825 10.532175 5.510176 -0.756780 58.114542 3.373038 31.173014 6.259431 0.000000 0.000000 0.000000 
2.366903 91.682030 2.416759 0.000000 0.000000 0.000000 8.671557 -15.434122 -0.086087 -30.345301 7.670208 15.064549 38.219389 4.732953 -2.134578 -10.339088 5.769207 -5.440873 0.000000 0.000000 0.000000 8.714975 -7.182952 1.621963 -18.464704 -7.696470 -13.717328 32.571444 -1.009458 0.095425 -15.924557 -5.010749 10.580706 0.000000 0.000000 0.000000 3.063824 -5.073949 0.621778 3.787156 -7.623543 -1.876178 8.492833 3.490227 -0.020355 1.924667 2.540963 0.631981 0.000000 0.000000 0.000000 -3.978992 1.549392 -0.856697 -4.515398 -0.169672 -0.518022 0.000000 0.000000 0.000000 -4.704810 3.776047 0.345356 -3.732232 1.977052 -4.844409 3.555749 9.001938 -59.990774 0.591248 -28.143818 -6.460383 0.000000 0.000000 0.000000 -3.795480 1.884344 -0.344347 -5.368162 3.859755 10.373593 5.657490 -0.320837 58.341782 3.447301 32.149943 6.219541 0.000000 0.000000 0.000000 
2.778142 91.628983 2.591659 0.000000 0.000000 0.000000 8.727337 -15.445365 -0.224323 -30.286811 7.732543 14.922027 38.331554 4.835548 -2.045593 -10.288736 5.829897 -5.245566 0.000000 0.000000 0.000000 8.781723 -7.363456 1.512350 -18.359777 -7.737609 -13.848787 32.509388 -0.852318 0.180577 -15.933400 -4.893454 10.806499 0.000000 0.000000 0.000000 3.196836 -5.105367 0.750639 3.808327 -7.157597 -2.005021 8.638218 3.401577 -0.047594 1.921497 2.420378 0.639838 0.000000 0.000000 0.000000 -4.041385 1.287301 -0.805036 -4.601057 -0.330286 -0.488346 0.000000 0.000000 0.000000 -4.750284 3.663621 0.334808 -3.781950 2.013344 -5.121453 4.063656 9.339867 -60.100972 0.534846 -28.233963 -6.376551 0.000000 0.000000 0.000000 -3.697229 1.737259 -0.436848 -5.272541 3.176987 10.205900 5.720163 0.138695 58.440847 3.496118 33.328444 6.114467 0.000000 0.000000 0.000000 
